HIERARCHY
ROOT hip
{
  OFFSET 111.639 83.7257 66.0508
  CHANNELS 6 Xposition Yposition Zposition Zrotation Xrotation Yrotation
  JOINT abdomen
  {
    OFFSET 0 20.6881 -0.73152
    CHANNELS 3 Zrotation Xrotation Yrotation
    JOINT chest
    {
      OFFSET 0 11.7043 -0.48768
      CHANNELS 3 Zrotation Xrotation Yrotation
      JOINT neck
      {
        OFFSET 0 22.1894 -2.19456
        CHANNELS 3 Zrotation Xrotation Yrotation
        JOINT head
        {
          OFFSET -0.24384 7.07133 1.2192
          CHANNELS 3 Zrotation Xrotation Yrotation
          JOINT leftEye
          {
            OFFSET 4.14528 8.04674 8.04672
            CHANNELS 3 Zrotation Xrotation Yrotation
            End Site
            {
              OFFSET 1 0 0
            }
          }
          JOINT rightEye
          {
            OFFSET -3.6576 8.04674 8.04672
            CHANNELS 3 Zrotation Xrotation Yrotation
            End Site
            {
              OFFSET 1 0 0
            }
          }
        }
      }
      JOINT rCollar
      {
        OFFSET -2.68224 19.2634 -4.8768
        CHANNELS 3 Zrotation Xrotation Yrotation
        JOINT rShldr
        {
          OFFSET -8.77824 -1.95073 1.46304
          CHANNELS 3 Zrotation Xrotation Yrotation
          JOINT rForeArm
          {
            OFFSET -28.1742 -1.7115 0.48768
            CHANNELS 3 Zrotation Xrotation Yrotation
            JOINT rHand
            {
              OFFSET -22.5879 0.773209 7.07136
              CHANNELS 3 Zrotation Xrotation Yrotation
              JOINT rThumb1
              {
                OFFSET -1.2192 -0.487915 3.41376
                CHANNELS 3 Zrotation Xrotation Yrotation
                JOINT rThumb2
                {
                  OFFSET -3.37035 -0.52449 3.41376
                  CHANNELS 3 Zrotation Xrotation Yrotation
                  End Site
                  {
                    OFFSET -1.78271 -1.18214 1.43049
                  }
                }
              }
              JOINT rIndex1
              {
                OFFSET -7.75947 0.938293 5.60832
                CHANNELS 3 Zrotation Xrotation Yrotation
                JOINT rIndex2
                {
                  OFFSET -2.54057 -0.884171 1.56538
                  CHANNELS 3 Zrotation Xrotation Yrotation
                  End Site
                  {
                    OFFSET -1.62519 -0.234802 1.16502
                  }
                }
              }
              JOINT rMid1
              {
                OFFSET -8.24714 1.18213 3.41376
                CHANNELS 3 Zrotation Xrotation Yrotation
                JOINT rMid2
                {
                  OFFSET -3.10165 -0.590103 1.0647
                  CHANNELS 3 Zrotation Xrotation Yrotation
                  End Site
                  {
                    OFFSET -2.48547 -0.328903 0.83742
                  }
                }
              }
              JOINT rRing1
              {
                OFFSET -8.82822 0.546677 1.51678
                CHANNELS 3 Zrotation Xrotation Yrotation
                JOINT rRing2
                {
                  OFFSET -2.60934 -0.819778 -0.0198488
                  CHANNELS 3 Zrotation Xrotation Yrotation
                  End Site
                  {
                    OFFSET -2.33842 -0.294052 0.168128
                  }
                }
              }
              JOINT rPinky1
              {
                OFFSET -8.27202 -0.0477905 -0.4584
                CHANNELS 3 Zrotation Xrotation Yrotation
                JOINT rPinky2
                {
                  OFFSET -1.82734 -0.647385 -0.700984
                  CHANNELS 3 Zrotation Xrotation Yrotation
                  End Site
                  {
                    OFFSET -1.69225 -0.51767 -0.607171
                  }
                }
              }
            }
          }
        }
      }
      JOINT lCollar
      {
        OFFSET 2.68224 19.2634 -4.8768
        CHANNELS 3 Zrotation Xrotation Yrotation
        JOINT lShldr
        {
          OFFSET 8.77824 -1.95073 1.46304
          CHANNELS 3 Zrotation Xrotation Yrotation
          JOINT lForeArm
          {
            OFFSET 28.1742 -1.7115 0.48768
            CHANNELS 3 Zrotation Xrotation Yrotation
            JOINT lHand
            {
              OFFSET 22.5879 0.773209 7.07136
              CHANNELS 3 Zrotation Xrotation Yrotation
              JOINT lThumb1
              {
                OFFSET 1.2192 -0.487915 3.41376
                CHANNELS 3 Zrotation Xrotation Yrotation
                JOINT lThumb2
                {
                  OFFSET 3.37035 -0.52449 3.41376
                  CHANNELS 3 Zrotation Xrotation Yrotation
                  End Site
                  {
                    OFFSET 1.78271 -1.18214 1.43049
                  }
                }
              }
              JOINT lIndex1
              {
                OFFSET 7.75947 0.938293 5.60832
                CHANNELS 3 Zrotation Xrotation Yrotation
                JOINT lIndex2
                {
                  OFFSET 2.54057 -0.884171 1.56538
                  CHANNELS 3 Zrotation Xrotation Yrotation
                  End Site
                  {
                    OFFSET 1.62519 -0.234802 1.16502
                  }
                }
              }
              JOINT lMid1
              {
                OFFSET 8.24714 1.18213 3.41376
                CHANNELS 3 Zrotation Xrotation Yrotation
                JOINT lMid2
                {
                  OFFSET 3.10165 -0.590103 1.0647
                  CHANNELS 3 Zrotation Xrotation Yrotation
                  End Site
                  {
                    OFFSET 2.48547 -0.328903 0.83742
                  }
                }
              }
              JOINT lRing1
              {
                OFFSET 8.82822 0.546677 1.51678
                CHANNELS 3 Zrotation Xrotation Yrotation
                JOINT lRing2
                {
                  OFFSET 2.60934 -0.819778 -0.0198488
                  CHANNELS 3 Zrotation Xrotation Yrotation
                  End Site
                  {
                    OFFSET 2.33842 -0.294052 0.168128
                  }
                }
              }
              JOINT lPinky1
              {
                OFFSET 8.27202 -0.0477905 -0.4584
                CHANNELS 3 Zrotation Xrotation Yrotation
                JOINT lPinky2
                {
                  OFFSET 1.82734 -0.647385 -0.700984
                  CHANNELS 3 Zrotation Xrotation Yrotation
                  End Site
                  {
                    OFFSET 1.69225 -0.51767 -0.607171
                  }
                }
              }
            }
          }
        }
      }
    }
  }
  JOINT rButtock
  {
    OFFSET -8.77824 4.35084 1.2192
    CHANNELS 3 Zrotation Xrotation Yrotation
    JOINT rThigh
    {
      OFFSET 0 -1.70687 -2.19456
      CHANNELS 3 Zrotation Xrotation Yrotation
      JOINT rShin
      {
        OFFSET 0 -36.8199 0.73152
        CHANNELS 3 Zrotation Xrotation Yrotation
        JOINT rFoot
        {
          OFFSET 0.73152 -45.1104 -5.12064
          CHANNELS 3 Zrotation Xrotation Yrotation
          End Site
          {
            OFFSET -1.1221 -3.69964 12.103
          }
        }
      }
    }
  }
  JOINT lButtock
  {
    OFFSET 8.77824 4.35084 1.2192
    CHANNELS 3 Zrotation Xrotation Yrotation
    JOINT lThigh
    {
      OFFSET 0 -1.70687 -2.19456
      CHANNELS 3 Zrotation Xrotation Yrotation
      JOINT lShin
      {
        OFFSET 0 -36.8199 0.73152
        CHANNELS 3 Zrotation Xrotation Yrotation
        JOINT lFoot
        {
          OFFSET -0.73152 -45.1104 -5.12064
          CHANNELS 3 Zrotation Xrotation Yrotation
          End Site
          {
            OFFSET 1.1221 -3.69964 12.103
          }
        }
      }
    }
  }
}
MOTION
Frames:	7
Frame Time:	0.00833333
-27.9344 83.6166 49.8506 -1.71691 -2.61288 56.3736 2.1857 11.2987 6.17485 -1.33404 -5.22178 1.73282 -12.5087 -5.22508 -5.4465 13.9875 10.845 -7.05362 -0 0 0 -0 0 0 7.03633e-015 2.46621e-013 -6.30152e-013 75.3358 16.3169 4.55367 -15.4286 -8.16706 28.4751 -0.00648264 2.27954 0.320545 4.52111e-009 9.19178e-009 -2.41272e-009 7.81419e-009 1.59511e-008 -4.19724e-009 4.52112e-009 9.19178e-009 -2.41274e-009 7.73091 5.47488 0.417314 4.52111e-009 9.19178e-009 -2.41272e-009 2.90554 0.965183 0.102902 4.52112e-009 9.19178e-009 -2.41272e-009 10.2786 0.731801 0.0259123 4.52111e-009 9.19178e-009 -2.41271e-009 2.22167 -0.733487 -0.20892 7.01533e-015 2.46622e-013 -6.30307e-013 -83.7814 17.8944 5.70999 11.4383 -5.06298 -20.527 0.131037 10.3242 -1.46675 2.89985e-009 1.35027e-009 -1.59741e-009 5.00034e-009 2.33916e-009 -2.79067e-009 2.89985e-009 1.35027e-009 -1.59741e-009 -7.73091 5.47488 -0.417314 2.89986e-009 1.35027e-009 -1.59742e-009 -2.90554 0.965183 -0.102902 2.89984e-009 1.35027e-009 -1.59741e-009 -10.2786 0.731801 -0.0259123 2.89985e-009 1.35028e-009 -1.59742e-009 -2.22167 -0.733487 0.20892 -2.03217e-016 0 -3.88251e-019 2.84605 11.5705 -2.42412 -0.0318737 11.4581 0.167897 -3.04567 -7.01065 -13.4254 2.03217e-016 0 3.88251e-019 -0.210202 -26.3022 0.300828 0.0562031 12.2598 0.0981578 0.727153 2.78923 10.3444 
-27.2635 83.5438 50.1986 -1.67556 -2.77514 56.6851 2.30407 11.3665 6.26373 -1.26931 -5.17499 1.76492 -12.4643 -5.2244 -5.48171 13.9616 10.867 -7.13604 -0 0 0 -0 0 0 -1.43222e-014 2.01707e-013 -1.97294e-013 75.2903 15.941 4.54171 -15.5051 -8.23555 28.6341 -0.00583107 2.16244 0.304062 1.69271e-009 3.74325e-009 -1.40875e-009 2.92395e-009 6.49849e-009 -2.44709e-009 1.69271e-009 3.74325e-009 -1.40876e-009 7.73091 5.47488 0.417314 1.69271e-009 3.74325e-009 -1.40875e-009 2.90554 0.965183 0.102902 1.69271e-009 3.74325e-009 -1.40875e-009 10.2786 0.731801 0.0259123 1.6927e-009 3.74326e-009 -1.40874e-009 2.22167 -0.733487 -0.20892 -1.44062e-014 2.01707e-013 -1.97468e-013 -83.9243 17.8068 5.62339 11.3149 -4.98036 -20.2902 0.152243 11.1352 -1.58471 7.10242e-010 6.76562e-010 5.65361e-011 1.23239e-009 1.17015e-009 9.26885e-011 7.10238e-010 6.76559e-010 5.65378e-011 -7.73091 5.47488 -0.417314 7.10247e-010 6.7656e-010 5.65309e-011 -2.90554 0.965183 -0.102902 7.10235e-010 6.76559e-010 5.6535e-011 -10.2786 0.731801 -0.0259123 7.10247e-010 6.76562e-010 5.65268e-011 -2.22167 -0.733487 0.20892 -2.03217e-016 0 -3.88251e-019 2.97979 12.0365 -2.30474 -0.0325536 11.752 0.177351 -3.05075 -6.86072 -13.612 2.03217e-016 0 3.88251e-019 -0.19846 -26.0445 0.9545 0.0594508 12.9984 0.0892137 0.690057 3.08865 10.1633 
-26.5439 83.4639 50.5415 -1.60012 -2.92848 56.9802 2.3871 11.4402 6.37147 -1.20831 -5.14088 1.80077 -12.4123 -5.20234 -5.51853 13.9573 10.9143 -7.23194 -0 0 0 -0 0 0 -3.62061e-014 1.49964e-013 2.43615e-013 75.2944 15.5394 4.47833 -15.5758 -8.29913 28.7818 -0.00536474 2.0854 0.293216 -1.18976e-009 -1.85333e-009 -3.16664e-010 -2.05957e-009 -3.21112e-009 -5.44208e-010 -1.18976e-009 -1.85333e-009 -3.16675e-010 7.73091 5.47488 0.417314 -1.18976e-009 -1.85332e-009 -3.16659e-010 2.90554 0.965183 0.102902 -1.18976e-009 -1.85333e-009 -3.16663e-010 10.2786 0.731801 0.0259123 -1.18977e-009 -1.85332e-009 -3.16656e-010 2.22167 -0.733487 -0.20892 -3.6357e-014 1.49964e-013 2.43422e-013 -84.0546 17.6791 5.54175 11.1867 -4.89484 -20.0457 0.177792 11.9786 -1.70839 -1.46693e-009 -2.4842e-011 1.64338e-009 -2.51492e-009 -4.65936e-011 2.85977e-009 -1.46693e-009 -2.48461e-011 1.64338e-009 -7.73091 5.47488 -0.417314 -1.46693e-009 -2.48464e-011 1.64338e-009 -2.90554 0.965183 -0.102902 -1.46694e-009 -2.48467e-011 1.64338e-009 -10.2786 0.731801 -0.0259123 -1.46693e-009 -2.48446e-011 1.64337e-009 -2.22167 -0.733487 0.20892 -2.03217e-016 0 -3.88251e-019 3.08279 12.4764 -2.15959 -0.0341804 12.1453 0.187481 -3.04234 -6.65535 -13.7963 2.03217e-016 0 3.88251e-019 -0.19972 -25.7521 1.62707 0.0632728 13.7689 0.0814004 0.6371 3.48553 9.90871 
-25.8124 83.4385 50.9096 -1.49472 -2.98422 57.249 2.36262 11.4657 6.49291 -1.17809 -5.14211 1.83437 -12.37 -5.1426 -5.55111 14.011 11.0021 -7.33081 -0 0 0 -0 0 0 -5.07972e-014 1.03169e-013 5.56746e-013 75.368 15.1683 4.35283 -15.6313 -8.34904 28.898 -0.00509902 2.03846 0.286609 -3.02215e-009 -5.49005e-009 4.97541e-010 -5.22689e-009 -9.52035e-009 8.73056e-010 -3.02215e-009 -5.49005e-009 4.97531e-010 7.73091 5.47488 0.417314 -3.02215e-009 -5.49005e-009 4.97547e-010 2.90554 0.965183 0.102902 -3.02215e-009 -5.49005e-009 4.97541e-010 10.2786 0.731801 0.0259123 -3.02216e-009 -5.49004e-009 4.97547e-010 2.22167 -0.733487 -0.20892 -5.09839e-014 1.03168e-013 5.56547e-013 -84.1434 17.5657 5.52881 11.0808 -4.82452 -19.8445 0.199592 12.6257 -1.80402 -2.77289e-009 -5.27021e-010 2.48213e-009 -4.76395e-009 -9.17037e-010 4.32382e-009 -2.77289e-009 -5.27025e-010 2.48214e-009 -7.73091 5.47488 -0.417314 -2.77289e-009 -5.27027e-010 2.48213e-009 -2.90554 0.965183 -0.102902 -2.77289e-009 -5.27027e-010 2.48213e-009 -10.2786 0.731801 -0.0259123 -2.77288e-009 -5.27025e-010 2.48212e-009 -2.22167 -0.733487 0.20892 -2.03217e-016 0 -3.88251e-019 3.06225 12.7908 -2.02268 -0.0379321 12.7013 0.195827 -3.00221 -6.35502 -13.9258 2.03217e-016 0 3.88251e-019 -0.294815 -25.4574 2.18147 0.0668168 14.3403 0.0819719 0.561277 3.99987 9.72062 
-25.0543 83.504 51.3038 -1.35448 -2.92777 57.4579 2.20244 11.4334 6.6564 -1.19852 -5.20689 1.87154 -12.3327 -5.0219 -5.57915 14.1512 11.1487 -7.44166 -0 0 0 -0 0 0 -5.7346e-014 6.28125e-014 7.18118e-013 75.535 14.8549 4.13003 -15.6721 -8.3859 28.9837 -0.00503232 2.01902 0.283875 -3.36553e-009 -6.43254e-009 1.00291e-009 -5.81833e-009 -1.11546e-008 1.74912e-009 -3.36553e-009 -6.43254e-009 1.0029e-009 7.73091 5.47488 0.417314 -3.36553e-009 -6.43254e-009 1.00291e-009 2.90554 0.965183 0.102902 -3.36553e-009 -6.43254e-009 1.00291e-009 10.2786 0.731801 0.0259123 -3.36554e-009 -6.43253e-009 1.00291e-009 2.22167 -0.733487 -0.20892 -5.75219e-014 6.28118e-014 7.17937e-013 -84.1703 17.4906 5.62056 11.0024 -4.77301 -19.6956 0.213561 13.0303 -1.864 -2.79139e-009 -7.84463e-010 2.16843e-009 -4.7993e-009 -1.36154e-009 3.78101e-009 -2.7914e-009 -7.84468e-010 2.16844e-009 -7.73091 5.47488 -0.417314 -2.79139e-009 -7.8447e-010 2.16843e-009 -2.90554 0.965183 -0.102902 -2.7914e-009 -7.8447e-010 2.16843e-009 -10.2786 0.731801 -0.0259123 -2.79139e-009 -7.84469e-010 2.16842e-009 -2.22167 -0.733487 0.20892 -2.03217e-016 0 -3.88251e-019 2.89024 12.9942 -1.86081 -0.0438015 13.3932 0.201409 -2.92791 -5.9538 -13.9929 2.03217e-016 0 3.88251e-019 -0.492714 -25.1827 2.56699 0.0698594 14.6611 0.0936852 0.442207 4.72151 9.74469 
-24.2805 83.5381 51.6072 -1.18067 -2.80579 57.6226 1.94848 11.3705 6.85468 -1.25081 -5.31573 1.91301 -12.294 -4.85526 -5.60538 14.3528 11.3414 -7.56632 -0 0 0 -0 0 0 -5.95773e-014 2.31645e-014 7.96092e-013 75.7765 14.5647 3.82686 -15.7025 -8.41353 29.0474 -0.00512301 2.03238 0.285756 -2.85694e-009 -5.86243e-009 1.37242e-009 -4.93578e-009 -1.01643e-008 2.38623e-009 -2.85694e-009 -5.86244e-009 1.37241e-009 7.73091 5.47488 0.417314 -2.85695e-009 -5.86244e-009 1.37242e-009 2.90554 0.965183 0.102902 -2.85694e-009 -5.86244e-009 1.37242e-009 10.2786 0.731801 0.0259123 -2.85695e-009 -5.86243e-009 1.37243e-009 2.22167 -0.733487 -0.20892 -5.97161e-014 2.31637e-014 7.95943e-013 -84.1546 17.4218 5.77652 10.9382 -4.73122 -19.5733 0.222933 13.3095 -1.90539 -2.04287e-009 -9.13192e-010 1.13973e-009 -3.51616e-009 -1.58177e-009 1.99341e-009 -2.04288e-009 -9.13196e-010 1.13973e-009 -7.73091 5.47488 -0.417314 -2.04288e-009 -9.13198e-010 1.13973e-009 -2.90554 0.965183 -0.102902 -2.04288e-009 -9.13198e-010 1.13973e-009 -10.2786 0.731801 -0.0259123 -2.04287e-009 -9.13197e-010 1.13972e-009 -2.22167 -0.733487 0.20892 -2.03217e-016 0 -3.88251e-019 2.6179 13.1258 -1.66996 -0.0512741 14.2017 0.205673 -2.82877 -5.47119 -14.0241 2.03217e-016 0 3.88251e-019 -0.752328 -24.9077 2.86245 0.0726674 14.8512 0.112434 0.285298 5.61086 9.87201 
-23.4768 83.5299 51.8097 -0.987938 -2.62346 57.8064 1.63396 11.2784 7.02919 -1.30412 -5.4198 1.94519 -12.2695 -4.68379 -5.62847 14.5716 11.5478 -7.68347 -0 0 0 -0 0 0 -5.63835e-014 -1.48343e-014 7.93355e-013 76.0491 14.2616 3.51058 -15.7185 -8.42809 29.0806 -0.00536028 2.08042 0.292515 -2.00619e-009 -4.54587e-009 1.546e-009 -3.46209e-009 -7.87943e-009 2.68274e-009 -2.00619e-009 -4.54587e-009 1.54598e-009 7.73091 5.47488 0.417314 -2.00619e-009 -4.54587e-009 1.54599e-009 2.90554 0.965183 0.102902 -2.00618e-009 -4.54587e-009 1.54599e-009 10.2786 0.731801 0.0259123 -2.0062e-009 -4.54586e-009 1.546e-009 2.22167 -0.733487 -0.20892 -5.64794e-014 -1.48351e-014 7.93238e-013 -84.126 17.3289 5.94566 10.8874 -4.69835 -19.4764 0.228395 13.4799 -1.93063 -1.07353e-009 -9.2859e-010 -2.22543e-011 -1.85282e-009 -1.60567e-009 -2.69586e-011 -1.07354e-009 -9.28595e-010 -2.22526e-011 -7.73091 5.47488 -0.417314 -1.07354e-009 -9.28597e-010 -2.22573e-011 -2.90554 0.965183 -0.102902 -1.07354e-009 -9.28597e-010 -2.22546e-011 -10.2786 0.731801 -0.0259123 -1.07353e-009 -9.28596e-010 -2.22635e-011 -2.22167 -0.733487 0.20892 -2.03217e-016 0 -3.88251e-019 2.27368 13.1234 -1.52848 -0.0607811 15.2019 0.209835 -2.70513 -4.90565 -14.0188 2.03217e-016 0 3.88251e-019 -1.07743 -24.6012 3.12597 0.0749707 14.9364 0.135208 0.129358 6.49514 9.85924 
